# xmcd
# 
# Track frame offsets:
#     183
#     16225
#     25928
#     38260
#     52845
#     68490
#     84445
#     93373
#     105788
#     118465
#     131640
#     141295
#     155523
#     172165
# 
# Disc length: 2477
# 
# Revision: 3
# Processed by: cddbd v1.5.2PL0 Copyright (c) Steve Scherf et al.
# Submitted via: fre:ac v1.1beta2
# 
DISCID=a909ab0e
DTITLE=Various Artist - CLASSIC COUNTRY,  vol. 1
DYEAR=1980
DGENRE=Country
TTITLE0=DOLLY PARTON - Heratbreaker
TTITLE1=WAYLON JENNINGS - Theme From The Dukes Of Hazzard
TTITLE2=DOLLY PARTON - The Bargain Store
TTITLE3=LEON EVERETTE - Shadows Of My Mind
TTITLE4=DOTTIE WEST - Delta Dawn
TTITLE5=BABBY BARE - You Made A Believer Out Of Me
TTITLE6=TOM T. HALL - Foggy Mountain Breakdown
TTITLE7=DOLLY PARTON - Touch Your Woman
TTITLE8=WAYLON JENNINGS - We Had It All
TTITLE9=BOBBY and JEAN BARE - The Shelter Of Your Eyes
TTITLE10=JIM REEVES - I Know One
TTITLE11=WILLIE NELSON - If You Can Touch Her At All
TTITLE12=JERRY REED - The Devil Went Down To Georgia
TTITLE13=ALABAMA - Tennessee River
EXTD=YEAR: 1980 ID3G: 2
EXTT0=
EXTT1=
EXTT2=
EXTT3=
EXTT4=
EXTT5=
EXTT6=
EXTT7=
EXTT8=
EXTT9=
EXTT10=
EXTT11=
EXTT12=
EXTT13=
PLAYORDER=
